<svg width="42" height="42" viewBox="0 0 42 42" fill="none" xmlns="http://www.w3.org/2000/svg">
<rect opacity="0.1" width="42" height="42" rx="21" fill="#D9B8FF"/>
<mask id="mask0_131_7547" style="mask-type:alpha" maskUnits="userSpaceOnUse" x="0" y="0" width="42" height="42">
<circle cx="21" cy="21" r="21" fill="#D9B8FF"/>
</mask>
<g mask="url(#mask0_131_7547)">
<g clip-path="url(#clip0_131_7547)">
<path d="M29.9851 28.2945C29.9851 28.2945 31.9714 29.3119 32.3131 30.8397C32.6548 32.3675 31.8178 35.7173 31.7298 37.5739C31.6418 39.4305 31.685 47.6943 31.9162 48.4106C32.1475 49.1269 33.4418 53.0443 33.9457 55.0721C34.4496 57.1 35.6576 65.3742 35.6732 66.1597C35.6904 66.9453 35.5834 68.2551 35.7215 68.7084C35.8595 69.1618 35.4902 73.266 35.5662 73.9806C35.6421 74.6952 35.756 75.3285 35.7733 76.0655C35.7905 76.8026 36.0114 77.294 35.7957 77.519C35.58 77.7439 35.2728 77.6211 35.1088 77.346C34.9449 77.0708 34.8051 76.7006 34.8051 76.7006C34.8051 76.7006 34.6584 77.1037 34.315 77.0172C33.9716 76.9307 33.8542 76.7265 33.7507 76.358C33.6471 75.9877 33.5798 75.5344 33.5798 75.5344C33.5798 75.5344 33.4832 75.6883 33.2847 75.389C33.0863 75.0897 32.5496 72.7036 32.2993 71.534C32.0491 70.3643 32.006 68.1893 32.1199 67.6824C32.2355 67.1754 32.9051 66.7203 32.9258 66.1494C32.9465 65.5784 30.4114 60.6333 29.4812 58.4341C28.551 56.2349 27.1773 47.1423 27.1773 47.1423C27.1773 47.1423 26.7096 35.8038 26.6838 35.2951C26.6561 34.7864 29.9851 28.2927 29.9851 28.2927V28.2945Z" fill="#F2A18B"/>
<path d="M9.2494 40.7887C8.49007 37.2572 9.43406 34.3694 10.63 33.4991C11.8259 32.6288 15.8849 30.1666 16.0851 29.0004C16.2853 27.8359 15.9764 22.5949 15.9764 22.5949C15.9764 22.5949 22.0078 25.3322 23.6956 26.0468C25.3834 26.7614 29.7047 27.649 30.5745 28.7287C31.4442 29.8084 31.622 33.7379 31.6306 35.3349C31.6392 36.9302 33.6463 40.9964 34.4142 42.6938C35.1822 44.3912 35.5084 45.085 34.7093 46.8637C33.9103 48.6424 31.5685 50.0734 31.2044 51.07C30.8385 52.0667 30.0843 56.6796 30.2414 57.8233C30.3967 58.967 31.0473 60.545 31.3735 62.9604C31.6996 65.3759 26.1514 73.1033 24.8726 74.4893C23.5938 75.8752 21.371 76.5206 21.3607 77.6643C21.3503 78.8063 21.8698 94.8771 22.0078 97.1316C22.1459 99.3861 21.3037 101.379 20.7187 103.153C20.132 104.925 20.0043 110.417 19.9732 112.083C19.9473 113.436 19.6677 118.762 19.9525 121.75C18.8342 121.354 17.6555 121.179 16.444 121.108C16.1696 121.092 15.8711 121.086 15.576 121.113C15.5743 120.814 15.5587 120.501 15.5208 120.17C15.2792 118.025 12.8959 113.621 12.2022 109.806C11.5084 105.989 13.8968 101.09 13.8986 100.9C13.9003 100.71 11.9795 92.6277 11.2789 89.4146C10.58 86.2015 10.3832 79.8496 10.5126 76.1676C10.6404 72.4856 10.8405 67.9159 11.4066 64.8724C11.9726 61.8288 13.141 62.1576 13.8192 60.6402C14.4974 59.1227 14.0849 55.849 13.3515 52.8885C12.6181 49.9298 10.0087 44.3168 9.2494 40.787V40.7887Z" fill="#FAB69B"/>
<path d="M16.0693 28.8118C16.0693 28.8118 19.5674 31.9297 22.5598 35.8263C24.1337 37.8749 25.0086 38.9442 25.0086 38.9442C25.0086 38.9442 26.1356 36.0599 26.1356 32.7083C26.1356 29.3568 24.1527 25.4983 24.1527 25.4983L26.9639 26.5901C26.9639 26.5901 30.2808 26.3825 32.9229 29.2928C35.5668 32.2014 37.277 45.7632 37.0181 47.7894C36.7593 49.8155 32.457 63.3255 32.457 63.5331C32.457 63.7408 31.9392 64.8845 31.9392 64.8845C31.9392 64.8845 29.6457 68.236 24.308 69.5355C18.9703 70.8349 12.8162 68.5734 10.5883 64.6249L12.868 55.5843L8.20332 44.9327L5.24885 34.4888L10.6901 30.1769L16.0676 28.8135L16.0693 28.8118Z" fill="#D9B8FF"/>
<path d="M29.7166 22.4253C29.6389 24.3944 28.9313 25.7319 29.7942 27.6992C30.6571 29.6665 29.9909 31.203 29.7166 32.6201C29.4422 34.0372 30.3447 35.257 30.3447 35.257C30.3447 35.257 27.7527 35.4543 27.2436 33.525C26.7345 31.5958 26.4583 27.8168 23.6713 25.8876C20.8842 23.9583 21.9041 20.1016 21.9041 20.1016L29.7166 22.4236V22.4253Z" fill="#70442E"/>
<path d="M29.9235 19.2832C29.87 19.0479 29.6923 18.2312 29.6336 17.8401C29.5749 17.4491 29.411 15.9213 29.0917 14.4505C28.7724 12.9781 26.0233 9.4414 22.4821 8.7216C18.9409 8.00008 15.8362 9.5556 14.6748 11.3136C13.5151 13.0698 12.7661 14.8312 13.2511 16.9473C13.736 19.0634 15.1597 20.9581 16.0882 22.1364C17.0166 23.3147 17.9382 25.1367 18.7286 26.36C19.519 27.5833 20.4612 28.3273 22.0696 28.9606C23.678 29.5956 25.5004 30.4607 26.6584 30.3102C27.8164 30.1597 28.0286 29.4399 28.1943 28.7409C28.3617 28.0418 28.5136 27.6646 28.7241 27.104C28.9347 26.5434 29.0416 26.1541 29.2902 25.2838C29.5387 24.4134 29.8597 23.0517 29.8338 22.1676C29.8079 21.2834 29.7078 20.9962 29.6646 20.548C29.6232 20.0999 30.0046 19.6448 29.9218 19.2832H29.9235Z" fill="#FDC6AA"/>
<path d="M17.2013 21.2089C17.2013 21.2089 16.6715 20.2677 15.9777 19.9908C15.284 19.714 13.8067 20.2088 13.9068 21.4321C14.0069 22.6554 14.699 23.0897 15.3893 23.7784C16.0796 24.467 16.297 25.0242 16.8026 25.0449C17.3083 25.0657 17.5154 25.0519 17.5344 24.7179C17.5533 24.384 17.2272 23.5881 17.1547 22.9998C17.0805 22.4115 17.4032 21.7955 17.203 21.2072L17.2013 21.2089Z" fill="#F2A18B"/>
<path d="M7.90779 46.9865C7.90779 46.9865 12.6588 42.2629 12.9729 41.9877C13.2869 41.7126 12.8555 44.6057 13.0505 45.2355C13.2455 45.8653 14.0325 45.668 14.5623 45.6888C15.0921 45.7078 16.5055 46.2788 17.3494 48.3257C18.1932 50.3726 20.0588 52.8331 22.2764 52.8331C24.4939 52.8331 26.3129 50.9108 26.8634 50.1892C27.4553 49.4123 29.7851 49.0057 30.2752 49.3397C30.3235 49.3726 29.54 49.4694 29.5728 49.4643C29.6022 49.5508 29.6298 49.639 29.6591 49.7238C29.6695 49.8155 29.6919 49.9124 29.7195 50.011C29.6643 50.0024 29.6091 49.9937 29.5487 49.9885C28.0076 49.8311 26.0834 53.4422 23.6621 53.7571C21.2409 54.072 20.2987 53.1013 19.2787 52.1687C18.2588 51.2378 16.4658 49.0853 15.0783 50.1616C13.6908 51.2378 15.3665 55.804 15.6806 59.5033C15.9946 63.2044 14.3724 63.5452 13.796 65.0142C13.2196 66.4832 15.7323 69.134 19.0043 69.6064C22.2764 70.0787 22.8528 69.9472 22.8528 69.9472C22.8528 69.9472 17.5651 73.5946 11.8339 70.84C6.10093 68.0837 5.47276 58.5586 5.47276 58.5586L7.90779 46.9848V46.9865Z" fill="#CEA3FF"/>
<path d="M10.7438 33.4091C10.7438 33.4091 8.45031 35.1238 7.7928 37.387C7.26645 39.2003 7.20259 41.4289 7.30268 44.2251C7.4045 47.0194 8.16728 53.8333 7.89807 55.5774C7.62885 57.3215 7.08524 60.9914 7.42694 63.0868C8.05856 66.9487 8.27773 74.882 8.27773 74.882L11.6533 75.4599C11.6533 75.4599 11.6101 73.8975 12.3332 69.975C13.0581 66.0524 13.2306 62.6974 13.153 60.8391C13.0753 58.9808 12.5731 56.7851 12.6076 55.4286C12.6439 54.072 12.9269 48.0144 12.9424 46.2287C12.958 44.4431 13.7311 43.1402 14.1643 39.8354C14.5974 36.5305 13.0874 33.0977 10.7404 33.4091H10.7438Z" fill="#FDC6AA"/>
<path d="M22.5705 12.2167C23.1469 12.9867 19.0637 13.2133 18.225 15.8381C17.388 18.463 19.2191 20.6673 19.2726 23.5015C19.3243 26.3357 17.1257 28.6456 16.8651 31.2687C16.6028 33.8935 17.074 35.0995 17.4933 36.5703C17.9127 38.0393 17.231 39.8249 17.231 39.8249C17.231 39.8249 16.6546 37.6205 15.0842 36.6758C13.5137 35.7311 11.7863 34.3659 11.838 31.8466C11.8898 29.3274 12.9891 27.0174 12.2039 24.1313C11.4187 21.2453 10.9993 16.1271 11.9416 13.568C12.8838 11.009 15.3965 8.88418 17.0446 8.17477C18.6944 7.46536 21.3107 10.5366 22.567 12.2167H22.5705Z" fill="#70442E"/>
<path d="M22.2043 12.1631C22.2043 12.1631 23.2518 12.4521 24.6117 12.3206C25.9733 12.1891 27.4005 11.7859 28.486 13.0559C29.3817 14.1062 29.1867 16.1652 29.4214 16.7431C29.6561 17.321 30.9728 14.499 30.4741 12.2167C29.9771 9.93451 27.5679 7.6765 24.8982 7.30968C22.2284 6.94286 19.167 6.49645 17.6483 8.62123C16.1297 10.7477 19.1411 11.8222 19.2187 11.8499C19.2964 11.8759 22.2026 12.1648 22.2026 12.1648L22.2043 12.1631Z" fill="#70442E"/>
</g>
</g>
<defs>
<clipPath id="clip0_131_7547">
<rect width="32.375" height="128.625" fill="white" transform="matrix(-1 0 0 1 37.625 7)"/>
</clipPath>
</defs>
</svg>
