<svg width="42" height="42" viewBox="0 0 42 42" fill="none" xmlns="http://www.w3.org/2000/svg">
<rect opacity="0.1" width="42" height="42" rx="21" fill="#7FEFFA"/>
<mask id="mask0_131_7513" style="mask-type:alpha" maskUnits="userSpaceOnUse" x="0" y="0" width="42" height="42">
<circle cx="21" cy="21" r="21" fill="#D9D9D9"/>
</mask>
<g mask="url(#mask0_131_7513)">
<g clip-path="url(#clip0_131_7513)">
<path d="M31.4602 28.9204C31.5141 29.0005 34.0788 30.3514 34.4809 32.5782C34.8811 34.8049 33.492 38.436 33.6517 40.264C33.8114 42.0919 34.2924 48.8771 34.6137 49.8578C34.935 50.8386 35.7354 53.5939 36.0028 55.874C36.2702 58.1542 37.0726 65.2027 37.846 68.2251C38.6214 71.2456 38.327 70.7953 38.327 70.7953C38.327 70.7953 36.4838 71.0872 35.3602 70.7953C34.2385 70.5033 33.1149 68.5151 32.6608 67.4561C32.2068 66.3952 29.6671 57.6772 29.6671 57.3585C29.6671 57.0399 28.4646 48.692 28.4646 48.3466C28.4646 48.0013 29.6401 35.1217 29.694 35.0415C29.7479 34.9614 31.4583 28.9185 31.4583 28.9185L31.4602 28.9204Z" fill="#F2A18B"/>
<path d="M30.2323 28.1227C30.2323 28.1227 33.6474 29.3096 34.4632 31.5382C35.2809 33.7669 33.9379 38.8023 33.9091 39.6133C33.8802 40.4242 34.7556 48.7873 35.1058 49.8578C35.456 50.9282 39.9004 73.2548 39.9004 73.2548L33.7282 72.9075L26.0303 49.9436C26.0303 49.9436 26.4689 37.8769 26.4689 37.4418C26.4689 37.0068 30.2323 28.1227 30.2323 28.1227Z" fill="#4D5669"/>
<path d="M12.8128 30.7998C12.8128 30.7998 14.681 27.8041 18.5905 26.7909C22.5001 25.7777 24.6011 26.4722 24.0181 28.0941C23.4352 29.7141 18.7656 33.2459 17.8902 33.8813C17.0148 34.5186 12.8128 30.7998 12.8128 30.7998Z" fill="#424D5E"/>
<path d="M15.0501 24.3352C15.0501 24.3352 15.0771 29.7942 14.9693 30.193C14.8616 30.5899 5.48208 36.5546 4.03908 38.1975C2.59608 39.8403 9.9015 52.5539 11.0405 56.5113C12.1814 60.4687 11.5042 63.8613 10.5422 67.8549C9.5802 71.8485 8.2257 73.438 8.86832 78.3856C9.50901 83.3333 9.47438 87.1838 10.1516 91.956C10.8289 96.7262 12.7529 105.419 12.7529 105.419C12.7529 105.419 9.68794 109.518 9.51093 113.407C9.332 117.293 11.7562 123.548 12.2911 127.153C12.826 130.757 11.8986 133.549 11.8986 133.549C11.8986 133.549 12.2719 135.705 12.9934 136.048C13.7149 136.393 16.9761 135.226 17.7495 134.962C18.5249 134.697 18.6038 134.22 18.6038 134.22C18.6038 134.22 17.509 133.134 17.2935 128.813C17.0799 124.493 18.2555 116.196 19.1906 113.76C20.1256 111.321 21.3012 109.705 21.5148 108.062C21.7283 106.419 23.5196 102.603 23.7331 99.2105C23.9467 95.8179 23.4926 84.5011 23.6523 83.6539C23.812 82.8067 27.0732 83.2303 28.5431 80.765C30.0131 78.2998 31.9909 72.8942 33.1396 71.2246C34.2882 69.555 33.0068 66.1357 32.9529 65.3152C32.8991 64.4929 32.5258 57.1524 32.7394 53.2027C32.9529 49.2529 32.4719 42.6548 32.3661 39.8976C32.2584 37.1404 33.2743 36.4783 33.382 33.8814C33.4897 31.2845 32.7933 29.0577 30.3883 28.5273C27.9833 27.9968 19.7524 24.631 19.7524 24.631L15.0482 24.339L15.0501 24.3352Z" fill="#FAB69B"/>
<path d="M14.9714 30.1911C14.9714 30.1911 16.3451 32.2328 18.9714 33.6791C21.5976 35.1255 25.7997 35.1255 24.982 29.9755C24.1643 24.8237 25.157 27.0237 25.157 27.0237C25.157 27.0237 29.5919 27.8633 31.1388 28.7315C32.6857 29.5996 33.3571 30.8723 33.4437 32.8415C33.5303 34.8087 32.4663 57.2803 32.9473 62.3157C33.4283 67.3512 34.4346 69.7821 34.4346 69.7821C34.4346 69.7821 34.348 74.558 30.9329 76.945C27.5178 79.3321 22.2653 80.7212 16.6645 80.33C11.0618 79.9388 8.69724 78.1166 8.69724 78.1166C8.69724 78.1166 8.30281 73.167 9.22249 70.6942C10.1422 68.2213 10.5347 60.1462 9.83624 56.8033C9.13591 53.4603 6.85981 47.1674 6.07097 44.6049C5.28214 42.0423 4.32398 37.9399 4.32398 37.9399L14.9695 30.1931L14.9714 30.1911Z" fill="#F57867"/>
<path d="M24.3967 27.661C24.3967 27.661 27.1981 29.3974 27.4905 32.4656C27.783 35.5338 28.745 40.9165 28.9201 47.6883C29.0952 54.4601 30.9922 77.8437 30.9922 77.8437C30.9922 77.8437 34.4362 75.7601 35.252 70.0874C35.252 70.0874 33.909 59.0319 33.909 49.9456C33.909 40.8593 34.0264 33.681 33.2664 31.2807C32.5083 28.8784 30.7864 27.2298 24.3948 27.6629L24.3967 27.661Z" fill="#626E82"/>
<path d="M15.841 23.0529C15.841 23.0529 16.4644 27.7526 18.1402 29.1302C19.816 30.5079 24.5548 32.187 25.5514 32.3453C26.55 32.5037 28.2239 31.8683 28.7414 31.002C29.259 30.1358 28.7414 29.6416 28.955 28.6341C29.1686 27.6266 29.2763 27.0084 29.2763 26.602C29.2763 26.1956 29.3302 22.45 29.3302 21.8318C29.3302 21.2136 29.6323 20.2423 29.7227 19.5001C29.8131 18.7578 28.297 15.0123 27.9949 14.0926C27.6929 13.1729 25.8208 9.86996 21.9382 8.63352C18.0536 7.39708 14.348 9.37577 13.1012 12.6978C11.8545 16.0197 12.9589 19.9065 13.5996 21.2498C14.2403 22.5931 15.5236 22.2038 15.8449 23.0529H15.841Z" fill="#FDC6AA"/>
<path d="M28.1428 11.0396C28.1428 11.0396 29.3992 12.2589 28.6507 13.6632C27.9023 15.0676 24.5622 16.7372 22.6113 16.4452C20.6604 16.1533 19.1096 15.7564 19.1904 17.3459C19.2712 18.9353 20.0716 19.3341 19.7253 20.2881C19.3771 21.2422 18.0418 22.4347 17.8552 22.9385C17.6685 23.4422 17.0009 23.6006 16.2525 22.9117C15.504 22.2229 13.5531 21.1086 13.2068 21.5608C12.8585 22.0111 13.4204 24.2913 13.4204 24.2913C13.4204 24.2913 11.5233 21.9329 11.4155 17.9297C11.3078 13.9285 10.5074 11.3296 13.099 8.99796C15.6887 6.66628 16.7316 5.44701 21.0336 6.98302C25.3357 8.52094 26.7267 10.6141 28.1428 11.0377V11.0396Z" fill="#73462D"/>
<path d="M16.0547 22.9118C16.0547 22.9118 15.2005 20.685 13.9172 21.3567C12.6339 22.0283 12.4569 23.1598 13.1687 24.3257C13.8806 25.4915 14.7464 26.2605 15.1543 26.3578C15.5641 26.4551 16.1067 26.5085 16.1875 26.3673C16.2683 26.2261 15.8931 25.9609 15.8854 25.316C15.8758 24.671 16.7493 23.5491 16.0547 22.9137V22.9118Z" fill="#F2A18B"/>
<path d="M12.8121 30.7998C12.8121 30.7998 16.3138 33.2746 17.7145 36.4C19.1151 39.5255 19.8597 41.4793 20.7351 45.1677C21.6106 48.8579 21.7856 59.7531 22.0916 63.3556C22.3975 66.958 21.7414 81.284 21.7414 81.284C21.7414 81.284 19.4653 81.9346 15.2633 81.0665C11.0613 80.1983 9.00452 79.0267 7.69043 77.464C7.69043 77.464 9.13535 63.3556 8.65435 58.7972C8.17335 54.2387 4.62742 42.2159 4.49659 40.4356C4.36576 38.6554 4.32535 37.9379 4.32535 37.9379L12.8121 30.7979V30.7998Z" fill="#626E82"/>
<path d="M4.3261 37.9401C4.3261 37.9401 1.97497 39.6192 1.18998 40.909C0.406909 42.1989 -3.79703 57.3262 -3.44109 58.9157C-3.08515 60.5051 9.58054 71.4919 10.5079 72.5165C11.4353 73.5412 13.2881 68.9122 13.2881 68.9122C13.2881 68.9122 8.54351 65.8191 7.47376 63.4875C6.40402 61.1558 3.70272 59.5663 3.70272 59.5663C3.70272 59.5663 8.58391 49.566 9.75947 48.2399C10.935 46.9157 10.5079 43.3629 9.33234 41.0312C8.15678 38.6995 5.25154 38.0813 4.3261 37.9401Z" fill="#FDC6AA"/>
<path d="M4.99905 37.377C4.99905 37.377 2.00145 39.1572 0.95095 41.0443C-0.0995541 42.9333 -4.21691 58.2629 -4.1996 58.9136C-4.14188 61.1136 9.1645 72.1099 9.1645 72.1099C9.1645 72.1099 9.6455 68.9406 13.3223 67.9865L4.72776 58.5663C4.72776 58.5663 10.6652 48.8579 11.2347 44.8643C11.8042 40.8707 9.04521 37.5277 4.99712 37.377H4.99905Z" fill="#77859C"/>
</g>
</g>
<defs>
<clipPath id="clip0_131_7513">
<rect width="44.1" height="141.75" fill="white" transform="matrix(-1 0 0 1 39.9004 6.29993)"/>
</clipPath>
</defs>
</svg>
