<svg width="1176" height="309" viewBox="0 0 1176 309" fill="none" xmlns="http://www.w3.org/2000/svg">
<path d="M1072.46 308.15H3.81982L29.6198 211.8H1098.26L1072.46 308.15Z" fill="#253858"/>
<path d="M72.5201 234.58H83.4101L78.8101 254.18H98.9001L103.5 234.58H114.4L102.77 284.1H91.8701L96.5401 264.22H76.4501L71.7801 284.1H60.8901L72.5201 234.58Z" fill="white"/>
<path d="M141.3 234.23H151.35L160.86 284.11H149.46L147.54 273H126.6L119.46 284.11H108.36L141.3 234.23ZM145.91 263.38L143.11 247.32L132.76 263.38H145.91Z" fill="white"/>
<path d="M178.08 234.58H200.72C206.99 234.58 211.41 236.25 213.97 239.6C216.13 242.43 216.66 246.2 215.55 250.92L215.52 251.06C214.58 255.07 212.83 258.34 210.28 260.86C207.73 263.38 204.73 265.23 201.3 266.41L209.24 284.1H196.5L189.61 268.25H189.47H181.05L177.33 284.1H166.44L178.08 234.58ZM194.36 258.64C197.05 258.64 199.26 258 201 256.73C202.74 255.46 203.86 253.76 204.35 251.64L204.38 251.5C204.93 249.14 204.59 247.37 203.36 246.19C202.13 245.01 200.17 244.42 197.48 244.42H186.66L183.32 258.64H194.36Z" fill="white"/>
<path d="M250.38 234.58H288.09L285.78 244.42H258.97L256.46 255.1H280.09L277.78 264.94H254.15L249.65 284.11H238.76L250.38 234.58Z" fill="white"/>
<path d="M307.77 234.23H317.82L327.33 284.11H315.94L314.02 273H293.08L285.94 284.11H274.83L307.77 234.23ZM312.38 263.38L309.58 247.32L299.23 263.38H312.38Z" fill="white"/>
<path d="M344.55 234.58H356.29L364.39 255.52L382.33 234.58H394.07L382.44 284.1H371.69L379.29 251.77L360.38 272.93H360.1L351.22 251.99L343.67 284.11H332.92L344.55 234.58Z" fill="white"/>
<path d="M404.4 234.58H415.3L403.67 284.1H392.77L404.4 234.58Z" fill="white"/>
<path d="M425.62 234.58H436.51L427.18 274.27H451.87L449.56 284.1H413.97L425.62 234.58Z" fill="white"/>
<path d="M464.16 264.58L452.18 234.58H464.92L472.06 254.46L488.76 234.58H501.14L475.11 264.36L470.47 284.1H459.58L464.16 264.58Z" fill="white"/>
<path d="M529.08 234.58H539.97L535.37 254.18H555.46L560.06 234.58H570.96L559.33 284.1H548.43L553.1 264.22H533.01L528.34 284.1H517.45L529.08 234.58Z" fill="white"/>
<path d="M593.02 284.96C589.2 284.96 585.84 284.29 582.95 282.94C580.06 281.6 577.71 279.78 575.92 277.49C574.12 275.2 572.94 272.51 572.37 269.42C571.8 266.33 571.93 263.02 572.76 259.48L572.79 259.34C573.62 255.8 575.06 252.49 577.11 249.4C579.15 246.31 581.62 243.6 584.5 241.27C587.38 238.93 590.6 237.09 594.15 235.75C597.69 234.41 601.38 233.73 605.2 233.73C609.02 233.73 612.38 234.4 615.27 235.75C618.16 237.09 620.5 238.91 622.3 241.2C624.1 243.49 625.28 246.18 625.85 249.26C626.42 252.35 626.29 255.66 625.46 259.2L625.43 259.34C624.6 262.88 623.16 266.19 621.11 269.28C619.06 272.37 616.6 275.08 613.71 277.42C610.83 279.76 607.61 281.59 604.07 282.94C600.52 284.28 596.84 284.96 593.02 284.96ZM595.52 274.91C597.69 274.91 599.79 274.51 601.82 273.71C603.85 272.91 605.68 271.8 607.3 270.39C608.93 268.97 610.33 267.34 611.5 265.47C612.67 263.61 613.5 261.61 614 259.49L614.03 259.35C614.53 257.23 614.63 255.22 614.35 253.34C614.06 251.45 613.41 249.8 612.4 248.39C611.39 246.98 610.06 245.86 608.41 245.03C606.77 244.21 604.86 243.79 602.69 243.79C600.47 243.79 598.36 244.19 596.36 244.99C594.36 245.79 592.54 246.9 590.91 248.31C589.28 249.72 587.88 251.37 586.71 253.23C585.54 255.09 584.71 257.09 584.21 259.21L584.18 259.35C583.68 261.47 583.57 263.48 583.86 265.36C584.15 267.24 584.8 268.9 585.81 270.31C586.82 271.72 588.14 272.85 589.76 273.67C591.38 274.5 593.3 274.91 595.52 274.91Z" fill="white"/>
<path d="M650.89 284.96C647.02 284.96 643.65 284.32 640.76 283.05C637.88 281.78 635.56 280.01 633.8 277.74C632.04 275.47 630.89 272.79 630.35 269.67C629.81 266.56 629.97 263.16 630.83 259.48L630.86 259.34C631.69 255.8 633.12 252.49 635.14 249.4C637.16 246.31 639.6 243.6 642.46 241.27C645.32 238.93 648.49 237.09 651.96 235.75C655.43 234.41 659.06 233.73 662.83 233.73C665.05 233.73 667.03 233.88 668.77 234.19C670.51 234.5 672.1 234.93 673.52 235.5C674.94 236.07 676.24 236.77 677.41 237.62C678.58 238.47 679.67 239.44 680.69 240.52L671.88 248.8C671.12 248 670.35 247.29 669.55 246.68C668.75 246.07 667.89 245.55 666.98 245.12C666.07 244.7 665.05 244.37 663.92 244.13C662.8 243.9 661.53 243.78 660.11 243.78C658.13 243.78 656.18 244.19 654.26 245.02C652.34 245.85 650.57 246.96 648.95 248.35C647.33 249.74 645.93 251.37 644.76 253.24C643.59 255.11 642.76 257.11 642.26 259.23L642.23 259.37C641.7 261.64 641.57 263.73 641.85 265.65C642.13 267.56 642.78 269.23 643.79 270.65C644.8 272.07 646.12 273.17 647.76 273.95C649.39 274.73 651.32 275.12 653.53 275.12C657.59 275.12 661.24 274.12 664.49 272.13L666.16 265.01H655.19L657.4 255.6H678.91L673.86 277.11C670.8 279.28 667.34 281.13 663.46 282.66C659.62 284.19 655.42 284.96 650.89 284.96Z" fill="white"/>
<path d="M692.79 234.58H703.69L692.06 284.1H681.16L692.79 234.58Z" fill="white"/>
<path d="M737.93 234.58H748.83L737.2 284.1H726.3L737.93 234.58Z" fill="white"/>
<path d="M759.15 234.58H769.2L785.24 265.07L792.4 234.58H803.15L791.52 284.1H782.25L765.66 252.62L758.26 284.1H747.51L759.15 234.58Z" fill="white"/>
<path d="M818.88 284.81C815.11 284.81 811.56 284.16 808.23 282.86C804.9 281.56 802.07 279.57 799.73 276.88L807.98 269.17C809.81 271.01 811.79 272.47 813.92 273.56C816.05 274.65 818.53 275.19 821.36 275.19C823.62 275.19 825.48 274.78 826.92 273.95C828.36 273.12 829.26 271.98 829.6 270.52L829.63 270.38C829.8 269.67 829.81 269.05 829.68 268.5C829.55 267.96 829.17 267.45 828.55 266.98C827.93 266.51 827.02 266.04 825.83 265.56C824.64 265.09 823.07 264.59 821.11 264.07C818.75 263.46 816.64 262.77 814.78 262.02C812.92 261.27 811.42 260.33 810.26 259.22C809.1 258.11 808.33 256.73 807.93 255.08C807.54 253.43 807.63 251.38 808.21 248.93L808.24 248.79C808.77 246.52 809.67 244.49 810.94 242.67C812.21 240.85 813.76 239.29 815.59 237.96C817.42 236.64 819.48 235.63 821.76 234.92C824.04 234.21 826.46 233.86 829 233.86C832.63 233.86 835.84 234.4 838.63 235.49C841.42 236.58 843.85 238.13 845.92 240.16L838.33 248.37C836.47 246.86 834.58 245.67 832.66 244.8C830.74 243.93 828.72 243.49 826.6 243.49C824.48 243.49 822.79 243.9 821.53 244.73C820.27 245.55 819.5 246.58 819.21 247.81L819.18 247.95C818.99 248.75 818.98 249.45 819.15 250.04C819.32 250.63 819.75 251.16 820.44 251.63C821.13 252.1 822.13 252.55 823.42 252.97C824.71 253.39 826.36 253.89 828.35 254.46C830.7 255.12 832.76 255.87 834.53 256.69C836.3 257.52 837.72 258.51 838.8 259.66C839.87 260.82 840.57 262.17 840.89 263.73C841.21 265.29 841.12 267.15 840.61 269.32L840.58 269.46C840 271.91 839.05 274.09 837.71 276.01C836.37 277.92 834.75 279.52 832.85 280.82C830.95 282.12 828.82 283.11 826.45 283.79C824.1 284.47 821.57 284.81 818.88 284.81Z" fill="white"/>
<path d="M865.06 284.89C858.41 284.89 853.61 283.05 850.65 279.37C847.69 275.69 847.07 270.2 848.79 262.89L855.44 234.59H866.34L859.76 262.61C858.81 266.67 859.03 269.72 860.44 271.77C861.85 273.82 864.22 274.85 867.57 274.85C870.92 274.85 873.77 273.86 876.12 271.88C878.47 269.9 880.11 266.93 881.04 262.96L887.71 234.59H898.61L892.05 262.54C891.16 266.31 889.88 269.59 888.22 272.37C886.55 275.15 884.55 277.48 882.23 279.34C879.9 281.2 877.29 282.59 874.39 283.51C871.46 284.42 868.36 284.89 865.06 284.89Z" fill="white"/>
<path d="M907.65 234.58H930.29C936.56 234.58 940.98 236.25 943.54 239.6C945.7 242.43 946.23 246.2 945.12 250.92L945.09 251.06C944.15 255.07 942.4 258.34 939.85 260.86C937.3 263.38 934.3 265.23 930.87 266.41L938.81 284.1H926.07L919.18 268.25H919.04H910.62L906.9 284.1H896.01L907.65 234.58ZM923.93 258.64C926.62 258.64 928.83 258 930.57 256.73C932.31 255.46 933.43 253.76 933.92 251.64L933.95 251.5C934.5 249.14 934.16 247.37 932.93 246.19C931.7 245.01 929.74 244.42 927.05 244.42H916.23L912.89 258.64H923.93Z" fill="white"/>
<path d="M956.75 234.58H994.03L991.75 244.27H965.22L962.86 254.32H986.21L983.93 264.01H960.58L958.14 274.41H985.02L982.74 284.1H945.1L956.75 234.58Z" fill="white"/>
<path d="M1002.1 234.58H1021.41C1025.28 234.58 1028.68 235.21 1031.62 236.45C1034.56 237.7 1036.93 239.43 1038.75 241.65C1040.57 243.87 1041.76 246.47 1042.33 249.47C1042.9 252.47 1042.77 255.71 1041.95 259.2L1041.92 259.34C1041.1 262.83 1039.7 266.09 1037.72 269.1C1035.74 272.11 1033.32 274.74 1030.46 276.95C1027.6 279.17 1024.41 280.91 1020.88 282.19C1017.35 283.46 1013.65 284.1 1009.78 284.1H990.47L1002.1 234.58ZM1012.09 274.27C1014.31 274.27 1016.42 273.92 1018.42 273.21C1020.43 272.5 1022.23 271.49 1023.84 270.17C1025.44 268.85 1026.83 267.29 1027.98 265.5C1029.13 263.71 1029.97 261.71 1030.49 259.49L1030.52 259.35C1031.03 257.18 1031.13 255.17 1030.83 253.34C1030.53 251.5 1029.89 249.92 1028.9 248.6C1027.91 247.28 1026.59 246.26 1024.92 245.52C1023.25 244.79 1021.31 244.43 1019.09 244.43H1010.67L1003.66 274.29H1012.09V274.27Z" fill="white"/>
<path d="M0 64.1599C2.86 64.1899 5.72 64.2499 8.58 64.2499C15.26 64.2599 21.94 64.2799 28.62 64.2299C29.81 64.2199 30.17 64.5699 30.15 65.7599C30.09 69.8899 30.13 74.0299 30.13 78.1699C30.13 78.7399 30.13 79.3099 30.13 79.8799C30.26 79.9399 30.39 79.9999 30.53 80.0499C30.84 79.6399 31.18 79.2399 31.46 78.8099C36 72.0499 41.69 66.5799 49.57 63.9999C64.1 59.2499 79.68 64.1099 86.47 82.2599C89.78 91.1199 90.52 100.32 89.87 109.63C89.24 118.72 87.32 127.59 82.66 135.55C75.86 147.15 65.65 152.69 52.17 151.49C44.54 150.81 37.99 147.43 32.46 142.14C31.82 141.53 31.32 140.78 30.76 140.1C30.59 140.2 30.41 140.29 30.24 140.39C30.24 153.89 30.24 167.4 30.24 181.01C25.05 181.01 20.09 181.01 15.01 181.01C14.97 180.59 14.91 180.19 14.91 179.79C14.94 147.72 14.99 115.64 14.98 83.5699C14.98 81.1499 14.81 78.6899 14.41 76.2999C13.73 72.2199 11.74 70.2799 7.69 69.5399C5.72 69.1799 3.71 68.9799 1.7 68.8599C0.65 68.7999 0.33 68.4199 0.32 67.4299C0.31 66.4499 0.12 65.4699 0.00999975 64.4899C-2.47732e-07 64.3799 0 64.2699 0 64.1599ZM30.12 109.66C30.12 117.35 30.09 125.03 30.17 132.71C30.18 133.46 30.66 134.47 31.25 134.91C36.97 139.16 43.2 142.37 50.36 143.32C55.91 144.06 61.02 143.02 65.22 139C68.54 135.82 70.42 131.82 71.62 127.48C74.61 116.63 74.78 105.65 72.76 94.6199C71.72 88.9599 69.94 83.5599 66.59 78.7799C62.07 72.3499 55.92 69.9899 48.46 72.0999C40.94 74.2299 35.13 78.8499 30.58 85.1199C30.22 85.6199 30.15 86.4099 30.15 87.0599C30.11 94.6099 30.12 102.13 30.12 109.66Z" fill="#0065FF"/>
<path d="M446.38 29.7798C446.38 28.1898 446.38 26.6798 446.38 25.0698C456.41 25.0698 466.35 25.0698 476.49 25.0698C476.49 43.2798 476.49 61.4798 476.49 79.8498C478.6 77.3198 480.39 74.8498 482.51 72.6798C491.94 63.0298 503.3 59.9598 516.24 63.5898C524.45 65.8898 529.74 71.8498 533.53 79.2198C536.7 85.3898 538.1 92.0598 538.54 98.9198C539.2 109.17 538.38 119.25 534.49 128.88C531.32 136.73 526.54 143.38 519.08 147.7C506.96 154.71 490.79 152.97 480.09 143.64C479.05 142.73 478.11 141.73 477.07 140.82C476.75 140.54 476.26 140.31 475.85 140.31C475.67 140.31 475.43 140.96 475.35 141.35C474.8 144.15 474.3 146.97 473.71 149.76C473.62 150.19 473.12 150.87 472.79 150.88C468.88 150.96 464.97 150.93 460.85 150.93C460.85 150.21 460.85 149.65 460.85 149.08C460.85 114.35 460.87 79.6198 460.82 44.8898C460.81 41.5698 460.41 38.2498 460.07 34.9498C459.87 33.0198 458.66 31.7298 456.75 31.3598C453.9 30.8098 451.03 30.3998 448.16 29.9498C447.59 29.8598 447.01 29.8398 446.38 29.7798ZM476.53 109.8C476.53 117.49 476.51 125.17 476.56 132.86C476.56 133.45 476.82 134.27 477.26 134.59C482.89 138.69 488.96 141.9 495.92 142.97C507.19 144.72 515.32 140.38 519.24 129.48C521.23 123.94 521.89 118.16 522.07 112.33C522.31 104.37 522 96.4498 519.9 88.6998C518.65 84.0898 516.79 79.7698 513.15 76.5098C508.14 72.0098 502.16 71.4198 495.86 72.6198C488.31 74.0498 482.59 78.4198 477.69 84.0998C476.84 85.0898 476.5 86.0798 476.51 87.3798C476.56 94.8498 476.53 102.33 476.53 109.8Z" fill="#253858"/>
<path d="M620.69 144.39C620.74 144.97 620.78 145.54 620.83 146.11C621.15 150.21 621.18 150.33 617.11 151.14C614.69 151.62 612.17 151.97 609.72 151.83C603.31 151.46 599.65 147.51 597.57 141.78C597.17 140.69 596.89 139.56 596.5 138.28C594.81 139.76 593.24 141.21 591.59 142.56C586.27 146.9 580.46 150.25 573.6 151.53C562.5 153.6 551.28 148.64 546.26 139.43C540.86 129.52 542.25 113.8 555.97 105.8C561.71 102.45 568.02 100.86 574.53 100.18C579.99 99.6198 585.5 99.5098 591 99.2098C591.62 99.1798 592.24 99.2098 593.06 99.2098C592.84 91.9698 593.74 84.8498 591.51 77.9398C589.44 71.5198 584.5 67.9198 577.74 68.2298C575.09 68.3498 572.37 68.7698 569.84 69.5698C563.99 71.4298 561.11 75.7498 560.62 81.7698C560.54 82.8098 560.48 83.8598 560.4 84.9998C556.88 84.9998 553.47 84.9998 549.8 84.9998C549.8 84.3398 549.8 83.6698 549.8 83.0098C549.8 78.8798 549.77 74.7398 549.84 70.6098C549.85 70.0698 550.23 69.2198 550.66 69.0398C561.53 64.3398 572.79 61.4598 584.75 62.3198C589.43 62.6498 593.97 63.6598 598.08 66.0698C604.06 69.5898 607.02 75.0698 607.99 81.7198C608.38 84.3798 608.53 87.0898 608.54 89.7898C608.59 102.09 608.48 114.39 608.61 126.68C608.65 130.73 609 134.82 609.7 138.81C610.37 142.69 612.61 144.62 616.04 144.87C617.52 144.98 619.05 144.57 620.69 144.39ZM593.02 103.98C585.6 103.94 578.45 104.19 571.75 107.34C563.4 111.27 559.55 117.63 559.9 126.86C560.27 136.65 569.37 144.14 579.03 142.6C583.78 141.85 587.92 139.64 591.95 137.15C592.79 136.63 593.04 136.04 593.03 135.1C593 125.67 593.01 116.24 593.01 106.8C593.02 105.96 593.02 105.11 593.02 103.98Z" fill="#253858"/>
<path d="M821.56 85.05C817.98 85.05 814.61 85.05 811.13 85.05C811.08 84.6 811.01 84.2 811.01 83.8C811 79.4 810.98 75.0001 811.04 70.6001C811.05 70.0601 811.42 69.2101 811.86 69.0301C822.73 64.3201 833.99 61.4 845.95 62.36C849.13 62.62 852.37 63.29 855.39 64.33C863.68 67.21 867.95 73.4701 869.19 81.9401C869.5 84.0201 869.56 86.1601 869.57 88.2701C869.6 101.31 869.51 114.36 869.64 127.4C869.68 131.08 870.03 134.82 870.76 138.43C871.86 143.86 875.01 145.67 880.41 144.55C880.82 144.46 881.23 144.39 881.82 144.28C881.98 146.02 882.16 147.68 882.24 149.34C882.26 149.63 881.89 150.12 881.61 150.22C877.39 151.59 873.1 152.53 868.65 151.54C863.82 150.47 860.9 147.21 859.11 142.8C858.54 141.38 858.14 139.9 857.6 138.27C855.99 139.68 854.46 141.1 852.85 142.42C847.5 146.82 841.69 150.41 834.73 151.46C823.98 153.09 814.87 150.16 808.39 141.01C801.87 131.79 802.18 114.07 817.62 105.47C823.22 102.35 829.33 100.8 835.63 100.16C841.2 99.6001 846.82 99.4901 852.42 99.1901C852.89 99.1601 853.35 99.1901 853.74 99.1901C853.88 98.9801 853.99 98.9001 853.99 98.8101C853.88 93.3101 854.06 87.7801 853.56 82.3101C853.07 76.9801 851.06 72.14 845.82 69.61C841.3 67.43 836.53 67.5601 831.9 69.1801C823.93 71.9701 822.15 75.9101 821.57 83.9401C821.55 84.2601 821.56 84.57 821.56 85.05ZM853.97 103.97C847.23 103.92 840.64 104.12 834.39 106.68C825.92 110.15 821.11 116.12 821 125.67C820.88 135.96 830.14 144.26 840.28 142.58C844.92 141.81 848.97 139.66 852.92 137.27C853.81 136.73 854.08 136.1 854.07 135.08C854.03 125.28 854.05 115.48 854.04 105.67C854.04 105.17 854 104.66 853.97 103.97Z" fill="#253858"/>
<path d="M765.87 99.12C765.56 91.92 766.68 84.74 764.31 77.78C762.13 71.38 757.35 68.13 750.6 68.14C746.96 68.15 743.6 68.9 740.38 70.56C736.34 72.64 734.34 76.04 733.7 80.38C733.48 81.89 733.38 83.41 733.21 85.01C729.81 85.01 726.44 85.01 722.96 85.01C722.91 84.68 722.81 84.33 722.81 83.98C722.8 79.47 722.77 74.97 722.85 70.46C722.86 69.94 723.32 69.15 723.78 68.96C732.09 65.36 740.69 62.79 749.79 62.29C754.77 62.01 759.73 62.17 764.61 63.48C774.33 66.09 780.24 73.05 781.09 83.09C781.29 85.46 781.38 87.85 781.39 90.22C781.44 103.9 781.41 117.58 781.53 131.26C781.55 133.67 781.94 136.12 782.45 138.48C783.57 143.6 786.56 145.51 791.73 144.65C792.25 144.56 792.76 144.44 793.58 144.27C793.75 146.19 793.91 148.05 794.07 149.99C788.85 151.69 783.66 153.01 778.35 150.87C772.79 148.64 770.83 143.67 769.42 138.34C766.98 140.37 764.7 142.41 762.27 144.25C756.72 148.44 750.62 151.36 743.56 151.87C729.48 152.89 718.58 143.9 716.65 132.32C714.71 120.68 719.6 109.96 731.61 104.33C737.44 101.6 743.68 100.37 750.03 99.84C754.82 99.44 759.65 99.4 764.46 99.2C764.87 99.19 765.28 99.16 765.87 99.12ZM765.84 103.97C758.66 103.97 751.7 104.15 745.16 107.1C737.06 110.76 732.68 116.83 732.74 125.98C732.79 136.24 741.88 144.19 752 142.58C756.6 141.85 760.6 139.73 764.51 137.35C765.48 136.76 765.87 136.13 765.86 134.96C765.81 125.2 765.83 115.45 765.83 105.69C765.84 105.18 765.84 104.66 765.84 103.97Z" fill="#253858"/>
<path d="M138.32 151.55C118.09 151.73 102.66 139.13 98.4098 118.97C95.4898 105.11 97.0398 91.8498 104.8 79.7698C111.42 69.4598 121.12 63.8998 133.29 62.6298C142.43 61.6798 151.17 62.9998 159.16 67.7298C169 73.5498 174.79 82.4298 177.57 93.3198C181.07 107.07 179.77 120.36 172.58 132.73C166.3 143.52 156.75 149.67 144.34 151.31C143.76 151.39 143.19 151.53 142.61 151.54C141.18 151.57 139.75 151.55 138.32 151.55ZM163.37 105.31C163.14 103.15 162.91 99.2798 162.3 95.4798C161.11 87.9798 158.72 80.9098 153.98 74.8198C146.92 65.7398 135.37 63.9998 126.57 70.7798C122.4 73.9998 119.63 78.3298 117.69 83.1498C112.73 95.4398 112.06 108.12 114.63 121.02C116.04 128.11 118.62 134.71 123.42 140.29C129.86 147.78 140.32 149.5 148.38 144.33C152.46 141.71 155.31 137.98 157.49 133.73C161.79 125.35 163.16 116.31 163.37 105.31Z" fill="#0065FF"/>
<path d="M653.14 144.13C672.05 144.13 690.63 144.13 709.31 144.13C709.31 146.07 709.31 147.95 709.31 149.93C684.37 149.93 659.49 149.93 634.48 149.93C634.43 147.38 634.3 145.11 636.01 142.76C653.51 118.58 670.87 94.3002 688.26 70.0402C688.46 69.7602 688.65 69.4701 689.01 68.9301C688.18 68.9301 687.63 68.9301 687.07 68.9301C676.31 68.9401 665.55 68.9102 654.79 68.9702C652.63 68.9802 650.47 69.2901 648.31 69.4501C646.69 69.5701 645.78 70.5501 645.55 72.0501C645.31 73.6101 645.22 75.2002 645.17 76.7902C645.11 78.7402 645.15 80.6902 645.15 82.7202C642.1 82.7202 639.43 82.7202 636.73 82.7202C636.73 76.4902 636.73 70.3702 636.73 64.1602C660.22 64.1602 683.62 64.1602 707.1 64.1602C707.38 66.8402 707.13 69.0901 705.42 71.4501C688.22 95.1901 671.17 119.04 654.08 142.86C653.86 143.18 653.61 143.51 653.14 144.13Z" fill="#253858"/>
<path d="M887.77 68.5298C887.77 67.2098 887.77 65.7398 887.77 64.1698C897.81 64.1698 907.79 64.1698 917.92 64.1698C917.92 69.3898 917.92 74.5498 917.92 79.7098C925.83 67.6198 935.95 60.2598 951.25 62.7398C951.25 70.7998 951.25 78.5198 951.25 86.3398C948.4 86.3398 945.62 86.3398 942.74 86.3398C942.43 83.9898 942.21 81.5798 941.79 79.2098C941.12 75.3998 940.52 74.9098 936.64 74.9798C929.61 75.1098 924.49 78.6898 920.28 83.9998C918.59 86.1298 917.86 88.3198 917.9 91.0998C918.05 103.82 917.93 116.54 917.99 129.26C918.01 132.42 918.31 135.59 918.57 138.75C918.81 141.69 920.37 143.59 923.34 144.04C926.1 144.45 928.89 144.7 931.68 144.99C932.61 145.09 933.55 145.1 934.54 145.16C934.54 146.84 934.54 148.35 934.54 149.93C918.95 149.93 903.44 149.93 887.72 149.93C887.72 148.54 887.63 147.18 887.78 145.84C887.82 145.51 888.62 145.1 889.12 145.03C891.73 144.64 894.37 144.4 896.98 144C899.89 143.55 901.64 141.89 901.87 138.86C902.09 135.9 902.42 132.95 902.43 129.99C902.49 114.67 902.5 99.3498 902.42 84.0298C902.4 80.7598 902 77.4898 901.67 74.2298C901.46 72.1798 900.24 70.7898 898.21 70.3798C894.79 69.7198 891.36 69.1698 887.77 68.5298Z" fill="#253858"/>
<path d="M178.32 29.44C178.32 28.06 178.32 26.71 178.32 25.23C178.92 25.2 179.44 25.15 179.96 25.15C188.7 25.15 197.45 25.19 206.19 25.11C207.74 25.1 208.01 25.65 208.01 27.03C208.03 46.16 208.09 65.29 208.15 84.43C208.21 105.42 208.27 126.4 208.33 147.39C208.34 149.74 208.33 149.74 206 149.74C201.34 149.74 196.69 149.74 191.86 149.74C191.82 149.12 191.77 148.61 191.77 148.1C191.84 136.55 191.88 124.99 191.99 113.44C192.06 105.17 192.23 96.91 192.33 88.64C192.5 73.17 192.68 57.7 192.78 42.23C192.79 40.29 192.52 38.31 192.12 36.41C191.49 33.4 189.58 31.39 186.57 30.74C183.88 30.17 181.15 29.88 178.32 29.44Z" fill="#0065FF"/>
<path d="M432.89 64.2598C431.16 67.5598 429.38 70.6098 427.91 73.8198C419.37 92.4798 410.9 111.17 402.42 129.85C396.25 143.43 390.14 157.05 383.92 170.6C381.65 175.55 378.43 179.61 372.54 180.39C370.29 180.69 367.99 180.76 365.72 180.75C361.22 180.73 356.71 180.59 352.21 180.47C351.26 180.45 350.32 180.32 349.41 180.24C348.82 177.76 349 177.47 351.3 177.54C354.26 177.63 357.22 177.79 360.18 177.99C365.02 178.31 369.66 177.68 374.08 175.54C376.81 174.22 379.01 172.32 380.21 169.57C381.96 165.55 383.42 161.41 385.01 157.33C385.8 155.31 386.5 153.25 387.44 151.3C387.94 150.27 387.89 149.48 387.48 148.48C378.56 127.16 369.66 105.84 360.76 84.5098C359.6 81.7298 358.56 78.8898 357.26 76.1698C355.3 72.0598 352.27 69.2498 347.48 68.7698C347.15 68.7398 346.87 68.1398 346.59 67.7898C346.54 67.7198 346.58 67.5799 346.58 67.4799C346.64 63.5399 346.1 64.2898 349.71 64.2698C356.97 64.2198 364.24 64.2598 371.5 64.2598C372.07 64.2598 372.64 64.2598 373.47 64.2598C373.47 66.1998 373.58 67.9898 373.45 69.7598C373.2 73.2398 374.08 76.4498 375.41 79.6198C382.39 96.2398 389.32 112.89 396.28 129.53C396.48 130 396.7 130.45 397.01 131.11C397.31 130.69 397.53 130.48 397.65 130.22C404.76 114.16 411.97 98.1598 418.89 82.0198C421.15 76.7398 422.67 71.1398 424.44 65.6498C424.8 64.5298 425.33 64.1898 426.46 64.2398C428.55 64.3198 430.66 64.2598 432.89 64.2598Z" fill="#0065FF"/>
<path d="M337.87 140.66C337.87 142.56 337.93 144.25 337.83 145.94C337.81 146.38 337.41 147.05 337.03 147.2C325.22 151.63 313.14 153.54 300.82 149.83C288.11 146.01 279.7 137.33 275.23 125.04C269.52 109.35 270.36 93.9799 279.36 79.6499C285.86 69.2999 295.68 63.9499 307.75 62.6399C317.67 61.5599 327.23 63.7199 336.79 65.8599C337.63 66.0499 337.87 66.5099 337.86 67.3099C337.84 73.1899 337.83 79.0799 337.86 84.9599C337.87 85.9899 337.49 86.3599 336.46 86.3299C334.34 86.2699 332.22 86.2499 330.1 86.3399C328.87 86.3899 328.5 85.9999 328.4 84.7399C328.22 82.4299 327.95 80.0899 327.35 77.8599C325.13 69.5899 319.6 66.6699 311.33 67.1299C302.16 67.6399 296.26 72.89 292.32 80.73C289.58 86.19 288.35 92.0699 287.81 98.1199C287.01 107.04 287.96 115.77 290.75 124.27C294.26 134.94 301.25 141.87 312.5 143.96C320.52 145.45 328.3 144.24 335.87 141.4C336.48 141.18 337.07 140.96 337.87 140.66Z" fill="#0065FF"/>
<path d="M229.2 68.7101C229.2 67.2101 229.2 65.8501 229.2 64.3701C239.1 64.3701 248.92 64.3701 258.84 64.3701C259.09 92.7701 259.34 121.12 259.59 149.6C254.08 149.6 248.71 149.6 243.19 149.6C243.19 148.34 243.18 147.03 243.19 145.73C243.3 133.59 243.43 121.46 243.54 109.32C243.62 100.2 243.73 91.0901 243.75 81.9701C243.75 80.0801 243.56 78.1601 243.21 76.2901C242.43 72.1601 240.44 70.2601 236.31 69.5001C235.17 69.2901 234.01 69.1201 232.86 68.9901C231.7 68.8701 230.54 68.8201 229.2 68.7101Z" fill="#0065FF"/>
<path d="M258.84 33.1899C258.84 38.1299 258.84 43.0299 258.84 48.0499C253.9 48.0499 248.96 48.0499 243.92 48.0499C243.92 43.0999 243.92 38.2099 243.92 33.1899C248.89 33.1899 253.82 33.1899 258.84 33.1899Z" fill="#0065FF"/>
<path d="M1159.44 104.11C1159.44 155.82 1117.52 197.75 1065.81 197.75C1014.1 197.75 972.17 155.83 972.17 104.11C972.17 52.4 1014.09 10.48 1065.81 10.48C1117.52 10.47 1159.44 52.39 1159.44 104.11Z" fill="#0065FF"/>
<path d="M1032.11 127.93L1038.45 126.23C1039.5 130.65 1039.15 134.59 1037.41 138.05C1035.67 141.51 1032.82 144.05 1028.88 145.68C1023.94 147.71 1019.3 147.74 1014.97 145.74C1010.64 143.75 1007.23 139.74 1004.75 133.71C1003.15 129.81 1002.39 126.14 1002.47 122.68C1002.56 119.23 1003.62 116.22 1005.66 113.67C1007.7 111.12 1010.27 109.21 1013.37 107.93C1017.29 106.32 1020.91 105.99 1024.21 106.94C1027.52 107.9 1030.27 110.05 1032.48 113.41L1026.91 116.78C1025.34 114.59 1023.59 113.18 1021.65 112.55C1019.71 111.92 1017.72 112.02 1015.68 112.86C1012.6 114.13 1010.55 116.27 1009.53 119.27C1008.51 122.27 1008.99 126.17 1010.96 130.95C1012.96 135.8 1015.34 138.94 1018.1 140.37C1020.86 141.8 1023.74 141.9 1026.73 140.67C1029.13 139.68 1030.83 138.12 1031.84 135.98C1032.86 133.86 1032.94 131.17 1032.11 127.93Z" fill="white"/>
<path d="M1039.1 119.41C1036.35 112.73 1036.17 107.01 1038.56 102.26C1040.56 98.3102 1043.8 95.4102 1048.26 93.5702C1053.22 91.5302 1057.95 91.4802 1062.44 93.4402C1066.93 95.4002 1070.35 99.2401 1072.71 104.97C1074.62 109.61 1075.43 113.56 1075.14 116.79C1074.84 120.03 1073.67 122.93 1071.61 125.5C1069.55 128.07 1066.95 130 1063.8 131.3C1058.75 133.38 1054 133.44 1049.55 131.49C1045.09 129.53 1041.61 125.51 1039.1 119.41ZM1045.38 116.82C1047.28 121.44 1049.72 124.49 1052.68 125.96C1055.64 127.43 1058.66 127.53 1061.72 126.27C1064.76 125.02 1066.81 122.82 1067.87 119.68C1068.94 116.54 1068.49 112.6 1066.54 107.86C1064.7 103.4 1062.29 100.43 1059.32 98.9702C1056.35 97.5102 1053.35 97.3902 1050.34 98.6302C1047.28 99.8902 1045.21 102.08 1044.14 105.2C1043.07 108.33 1043.48 112.2 1045.38 116.82Z" fill="white"/>
<path d="M1087.52 120.58L1072.66 84.4801L1078.13 82.2301L1080.22 87.3001C1080.62 85.0701 1081.54 83.0201 1082.98 81.1701C1084.42 79.3201 1086.34 77.9001 1088.74 76.9101C1091.41 75.8101 1093.83 75.4601 1096 75.8701C1098.17 76.2801 1100.01 77.3301 1101.54 79.0401C1102.66 73.6501 1105.51 70.0101 1110.09 68.1301C1113.67 66.6601 1116.83 66.5101 1119.57 67.7001C1122.31 68.8901 1124.53 71.5501 1126.23 75.6701L1136.43 100.45L1130.35 102.95L1120.99 80.2101C1119.98 77.7601 1119.06 76.0801 1118.22 75.1701C1117.38 74.2601 1116.3 73.6901 1114.99 73.4601C1113.68 73.2301 1112.32 73.4101 1110.91 73.9901C1108.37 75.0301 1106.61 76.7501 1105.63 79.1301C1104.65 81.5101 1104.92 84.5601 1106.45 88.2701L1115.09 109.24L1108.97 111.76L1099.31 88.3101C1098.19 85.5901 1096.85 83.7601 1095.3 82.8101C1093.74 81.8601 1091.83 81.8501 1089.57 82.7901C1087.85 83.5001 1086.44 84.6101 1085.35 86.1201C1084.26 87.6301 1083.75 89.3901 1083.81 91.4101C1083.87 93.4201 1084.58 96.0801 1085.93 99.3601L1093.64 118.09L1087.52 120.58Z" fill="white"/>
<path d="M1157.18 0C1160.29 0 1163.32 0.799999 1166.28 2.39C1169.24 3.99 1171.54 6.26 1173.19 9.23C1174.84 12.2 1175.67 15.29 1175.67 18.51C1175.67 21.7 1174.86 24.76 1173.23 27.7C1171.6 30.64 1169.32 32.93 1166.39 34.55C1163.46 36.18 1160.39 36.99 1157.18 36.99C1153.98 36.99 1150.91 36.18 1147.97 34.55C1145.04 32.93 1142.75 30.64 1141.12 27.7C1139.49 24.76 1138.67 21.69 1138.67 18.51C1138.67 15.29 1139.5 12.2 1141.16 9.23C1142.82 6.26 1145.13 3.98 1148.09 2.39C1151.04 0.799999 1154.08 0 1157.18 0ZM1157.18 3.06999C1154.58 3.06999 1152.05 3.73999 1149.59 5.06999C1147.13 6.39999 1145.2 8.31 1143.82 10.78C1142.43 13.26 1141.74 15.84 1141.74 18.52C1141.74 21.18 1142.42 23.74 1143.79 26.18C1145.15 28.62 1147.06 30.53 1149.52 31.89C1151.97 33.25 1154.53 33.94 1157.19 33.94C1159.86 33.94 1162.41 33.26 1164.87 31.89C1167.32 30.52 1169.23 28.62 1170.58 26.18C1171.94 23.74 1172.62 21.18 1172.62 18.52C1172.62 15.84 1171.93 13.26 1170.55 10.78C1169.17 8.3 1167.24 6.39999 1164.78 5.06999C1162.32 3.73999 1159.77 3.06999 1157.18 3.06999ZM1149.07 28.74V8.83H1155.91C1158.25 8.83 1159.94 9.00999 1160.99 9.37999C1162.04 9.74999 1162.87 10.39 1163.49 11.3C1164.11 12.22 1164.42 13.19 1164.42 14.22C1164.42 15.68 1163.9 16.94 1162.86 18.02C1161.82 19.1 1160.45 19.7 1158.73 19.83C1159.43 20.12 1160 20.48 1160.42 20.89C1161.22 21.67 1162.2 22.99 1163.36 24.84L1165.79 28.74H1161.87L1160.1 25.6C1158.71 23.13 1157.59 21.59 1156.74 20.97C1156.15 20.51 1155.29 20.28 1154.16 20.28H1152.27V28.74H1149.07ZM1152.28 17.54H1156.18C1158.04 17.54 1159.31 17.26 1159.99 16.71C1160.67 16.15 1161.01 15.42 1161.01 14.5C1161.01 13.91 1160.84 13.38 1160.52 12.92C1160.19 12.45 1159.74 12.11 1159.16 11.88C1158.58 11.65 1157.51 11.54 1155.94 11.54H1152.29V17.54H1152.28Z" fill="black"/>
</svg>
